<svg width="13" height="13" viewBox="0 0 13 13" fill="none" xmlns="http://www.w3.org/2000/svg">
<path d="M6.5 13C10.0899 13 13 10.0899 13 6.5C13 2.91015 10.0899 0 6.5 0C2.91015 0 0 2.91015 0 6.5C0 10.0899 2.91015 13 6.5 13Z" fill="#3C5A99"/>
<path d="M7.0053 9.75V6.78945H8.00315L8.15295 5.63037H7.0053V4.89277C7.0053 4.55761 7.09797 4.33037 7.57786 4.33037H8.18596V3.29697C8.08059 3.283 7.7175 3.25127 7.29475 3.25127C6.41243 3.25127 5.80813 3.78955 5.80813 4.77851V5.63164H4.81409V6.79072H5.80813V9.75H7.0053Z" fill="white"/>
</svg>
